#!OML:ASF F:\VICON\USERDATA\INSTALL\rory3\rory3.ASF
:FULLY-SPECIFIED
:DEGREES
792
root -3.05596 18.6585 8.01686 14.7036 -6.20029 -1.18586
lowerback -2.06974 -0.635596 5.3444
upperback -5.18191 -0.838682 -0.262611
thorax -4.29007 -0.645096 -3.25052
lowerneck -13.529 -3.69911 -7.46116
upperneck 26.9917 -4.19468 2.72061
head 11.2089 -2.35933 1.68556
rclavicle -3.39293e-014 7.81472e-015
rhumerus -42.0951 7.9649 -87.2801
rradius 44.169
rwrist 10.8681
rhand -26.5584 -46.7632
rfingers 7.12502
rthumb 0.00645352 -76.743
lclavicle -3.39293e-014 7.81472e-015
lhumerus -47.4546 -15.0025 82.3871
lradius 61.0529
lwrist 2.44319
lhand -32.2081 -39.412
lfingers 7.12502
lthumb -5.44963 -9.50209
rfemur -27.3674 7.51333 24.5565
rtibia 29.3152
rfoot 9.64672 -12.5856
rtoes -12.6718
lfemur -73.5596 22.4501 -11.2426
ltibia 133.782
lfoot -18.5577 -1.99484
ltoes -6.20562
793
root -3.08828 18.4924 8.05944 15.0638 -5.64262 -1.77184
lowerback -3.07652 -0.737785 6.25892
upperback -5.04915 -1.04177 -0.107169
thorax -3.62555 -0.756992 -3.61463
lowerneck -14.0626 -3.712 -7.56978
upperneck 27.1558 -4.16095 2.78449
head 11.381 -2.34387 1.72524
rclavicle -7.60662e-015 2.45375e-014
rhumerus -41.894 8.01204 -87.4005
rradius 43.9701
rwrist 9.94656
rhand -28.4008 -42.0717
rfingers 7.12502
rthumb -1.77298 -72.044
lclavicle -7.60662e-015 2.45375e-014
lhumerus -46.8647 -15.0869 82.1268
lradius 61.3505
lwrist 2.44561
lhand -31.7472 -39.4381
lfingers 7.12502
lthumb -5.00462 -9.5172
rfemur -27.5521 6.93093 25.22
rtibia 29.7621
rfoot 6.46881 -10.7062
rtoes -17.45
lfemur -73.6434 21.3052 -10.6346
ltibia 133.324
lfoot -18.8474 -2.00116
ltoes -6.26317
794
root -3.13638 18.2891 8.04491 15.0536 -5.63975 -1.89282
lowerback -2.71371 -0.833516 6.12729
upperback -5.1918 -1.13628 -0.0110643
thorax -3.98423 -0.8112 -3.43224
lowerneck -14.3872 -3.69164 -7.36365
upperneck 27.3465 -4.08029 2.49508
head 11.503 -2.32162 1.59124
rclavicle 1.97705e-014 5.39203e-015
rhumerus -41.8461 7.76256 -87.3205
rradius 43.9087
rwrist 11.0345
rhand -27.4829 -44.7495
rfingers 7.12502
rthumb -0.886503 -74.7274
lclavicle 1.97705e-014 5.39203e-015
lhumerus -46.6746 -15.0393 81.8219
lradius 61.8156
lwrist 2.36414
lhand -31.1991 -39.4778
lfingers 7.12502
lthumb -4.47542 -9.54506
rfemur -27.8556 7.21297 25.3305
rtibia 30.6188
rfoot 2.84662 -9.70989
rtoes -19.6301
lfemur -74.0997 21.3676 -10.3955
ltibia 133.119
lfoot -18.741 -2.66646
ltoes -5.59662
795
root -3.17154 18.1087 8.09824 15.2163 -5.48486 -1.86872
lowerback -3.5717 -0.909193 6.22097
upperback -5.19669 -1.29914 0.0021039
thorax -3.52574 -0.883126 -3.48579
lowerneck -14.7312 -3.61246 -7.06369
upperneck 27.5808 -3.9215 2.14076
head 11.6385 -2.26344 1.42819
rclavicle -2.17366e-014 3.00662e-015
rhumerus -41.9948 7.54156 -87.2145
rradius 44.5375
rwrist 11.1962
rhand -24.7496 -47.838
rfingers 7.12502
rthumb 1.75342 -77.8106
lclavicle -2.17366e-014 3.00662e-015
lhumerus -46.5909 -14.9042 81.5732
lradius 62.3722
lwrist 2.25634
lhand -30.7729 -39.3432
lfingers 7.12502
lthumb -4.06382 -9.40217
rfemur -27.8993 6.26812 25.5256
rtibia 31.6541
rfoot -0.563791 -8.69471
rtoes -21.4277
lfemur -73.7413 20.3099 -10.577
ltibia 132.603
lfoot -18.8755 -2.26916
ltoes -5.14911
796
root -3.21251 17.8863 8.0667 15.1508 -5.39967 -1.88049
lowerback -3.03608 -1.03408 5.97928
upperback -5.28576 -1.42043 0.110849
thorax -3.9222 -0.945479 -3.22426
lowerneck -15.0117 -3.53298 -6.96518
upperneck 27.5023 -3.79006 2.07271
head 11.6534 -2.19908 1.40167
rclavicle 2.25939e-014 -5.29264e-015
rhumerus -42.1079 7.47733 -87.1595
rradius 45.1232
rwrist 11.0291
rhand -22.8585 -48.0817
rfingers 7.12502
rthumb 3.57975 -78.0314
lclavicle 2.25939e-014 -5.29264e-015
lhumerus -46.316 -14.7273 81.3102
lradius 62.9806
lwrist 2.04156
lhand -30.7235 -39.2344
lfingers 7.12502
lthumb -4.01612 -9.29256
rfemur -28.3452 6.13998 25.7857
rtibia 33.167
rfoot -2.88437 -8.7937
rtoes -24.1136
lfemur -74.4416 20.2809 -10.4722
ltibia 132.577
lfoot -18.6275 -2.93406
ltoes -5.08525
797
root -3.23506 17.702 8.0935 15.1093 -4.81307 -1.76976
lowerback -3.28542 -1.24806 6.2489
upperback -5.28564 -1.72616 0.0940622
thorax -3.82503 -1.10649 -3.39568
lowerneck -14.9634 -3.48822 -6.973
upperneck 27.132 -3.71529 2.05334
head 11.4964 -2.16408 1.40672
rclavicle -6.73228e-015 1.82633e-014
rhumerus -42.3915 7.60751 -87.2908
rradius 45.6061
rwrist 10.0036
rhand -24.0896 -46.2487
rfingers 7.12502
rthumb 2.3908 -76.2151
lclavicle -6.73228e-015 1.82633e-014
lhumerus -46.0913 -14.5665 81.1331
lradius 63.5695
lwrist 1.8533
lhand -30.6971 -39.1797
lfingers 7.12502
lthumb -3.99062 -9.2373
rfemur -28.713 5.06835 25.9583
rtibia 34.7113
rfoot -5.8679 -8.8944
rtoes -17.5861
lfemur -74.2582 18.5634 -10.6205
ltibia 132.088
lfoot -18.4753 -2.46207
ltoes -5.4428
798
root -3.26011 17.5207 8.11166 14.9073 -4.59081 -1.55002
lowerback -3.12441 -1.36517 6.21183
upperback -5.34415 -1.86872 0.0970404
thorax -3.99111 -1.18235 -3.3649
lowerneck -14.7324 -3.43828 -7.04585
upperneck 26.663 -3.60491 1.95024
head 11.2655 -2.12965 1.39923
rclavicle -5.40415e-014 -6.4605e-015
rhumerus -42.7882 7.62175 -87.2983
rradius 46.1303
rwrist 9.27231
rhand -25.7139 -44.7237
rfingers 7.12502
rthumb 0.822063 -74.7019
lclavicle -5.40415e-014 -6.4605e-015
lhumerus -45.8951 -14.4653 81.1703
lradius 63.9989
lwrist 1.75271
lhand -30.7123 -39.2055
lfingers 7.12502
lthumb -4.00528 -9.26337
rfemur -29.4223 4.38028 25.9935
rtibia 36.6274
rfoot -8.96517 -9.08291
rtoes -10.6557
lfemur -73.9507 17.4026 -10.8788
ltibia 131.536
lfoot -18.4346 -2.18534
ltoes -5.21207
799
root -3.30198 17.3703 8.12621 14.6625 -4.87949 -1.4322
lowerback -2.93448 -1.3299 5.82847
upperback -5.21861 -1.80654 0.223931
thorax -3.93777 -1.12865 -3.01675
lowerneck -14.7278 -3.34847 -7.1035
upperneck 26.1146 -3.41028 1.80309
head 11.0464 -2.05641 1.38216
rclavicle 1.26415e-014 -1.43125e-014
rhumerus -42.6215 7.27888 -86.7751
rradius 46.7579
rwrist 11.0744
rhand -22.172 -47.9658
rfingers 7.12502
rthumb 4.2427 -77.9033
lclavicle 1.26415e-014 -1.43125e-014
lhumerus -45.3821 -14.0904 81.2155
lradius 64.3457
lwrist 1.44772
lhand -31.0886 -39.4699
lfingers 7.12502
lthumb -4.36872 -9.535
rfemur -30.2081 4.1516 26.2585
rtibia 38.5661
rfoot -12.0934 -9.77806
rtoes -7.48993
lfemur -73.3441 17.4993 -10.9311
ltibia 130.706
lfoot -18.6469 -2.49282
ltoes -5.05313
800
root -3.33198 17.1969 8.12131 14.4972 -4.94623 -1.40491
lowerback -2.78887 -1.36247 5.65554
upperback -5.0292 -1.84077 0.379974
thorax -3.8109 -1.12792 -2.75759
lowerneck -14.8193 -3.32342 -7.06252
upperneck 25.4968 -3.29579 1.53871
head 10.823 -2.02132 1.29369
rclavicle -8.63471e-016 4.96962e-015
rhumerus -42.4224 7.7065 -86.8477
rradius 46.6475
rwrist 9.28377
rhand -25.7282 -45.5026
rfingers 7.12502
rthumb 0.808256 -75.4808
lclavicle -8.63471e-016 4.96962e-015
lhumerus -44.7754 -13.3712 81.1777
lradius 64.7864
lwrist 0.952522
lhand -32.0011 -39.9792
lfingers 7.12502
lthumb -5.24979 -10.0642
rfemur -31.3882 3.38138 26.8094
rtibia 40.7383
rfoot -15.1507 -10.6442
rtoes -6.87427
lfemur -73.1312 17.067 -10.9487
ltibia 130.089
lfoot -18.5748 -2.59086
ltoes -5.97545
801
root -3.3633 17.0127 8.10455 14.1662 -5.23813 -1.38172
lowerback -2.3134 -1.36036 5.4142
upperback -4.83652 -1.80901 0.488384
thorax -3.8602 -1.09747 -2.5017
lowerneck -14.8944 -3.36207 -6.97897
upperneck 24.8792 -3.29077 1.28338
head 10.6034 -2.03078 1.18751
rclavicle -9.33046e-015 9.93923e-015
rhumerus -42.3684 8.01 -86.8636
rradius 47.1159
rwrist 9.51047
rhand -27.0249 -45.7416
rfingers 7.12502
rthumb -0.444184 -75.7209
lclavicle -9.33046e-015 9.93923e-015
lhumerus -44.1322 -12.7395 81.029
lradius 65.0342
lwrist 0.572562
lhand -31.5873 -41.2087
lfingers 7.12502
lthumb -4.85021 -11.2842
rfemur -32.2642 3.0061 27.3136
rtibia 42.9421
rfoot -17.8274 -11.7997
rtoes -5.02285
lfemur -72.784 17.0354 -10.8673
ltibia 129.544
lfoot -18.672 -2.83241
ltoes -7.33341
802
root -3.38996 16.8116 8.08232 13.8597 -5.82968 -1.45415
lowerback -1.65396 -1.25483 5.22875
upperback -4.68669 -1.62822 0.579708
thorax -4.0505 -0.999352 -2.29299
lowerneck -15.1827 -3.26834 -6.87213
upperneck 24.489 -3.13687 1.20131
head 10.5049 -1.95167 1.1582
rclavicle 2.97804e-014 -1.05356e-014
rhumerus -42.1229 8.37712 -86.8424
rradius 47.5118
rwrist 10.5213
rhand -26.7402 -48.77
rfingers 7.12502
rthumb -0.169167 -78.7497
lclavicle 2.97804e-014 -1.05356e-014
lhumerus -43.4513 -12.2867 80.7899
lradius 65.1107
lwrist 0.203931
lhand -32.1955 -42.4695
lfingers 7.12502
lthumb -5.43753 -12.5593
rfemur -32.8714 3.23838 27.7763
rtibia 45.153
rfoot -19.8132 -13.4244
rtoes -4.48259
lfemur -72.4524 17.6567 -10.6816
ltibia 129.183
lfoot -19.2073 -3.20138
ltoes -8.22288
803
root -3.41822 16.6447 8.05856 13.9309 -7.22926 -1.69312
lowerback -1.31055 -0.823392 5.0478
upperback -4.64786 -1.03083 0.654241
thorax -4.14958 -0.694367 -2.1237
lowerneck -15.1869 -3.11607 -6.82649
upperneck 24.0744 -2.94509 1.25714
head 10.3447 -1.84562 1.19716
rclavicle -2.5109e-014 -6.55989e-015
rhumerus -41.6886 8.86257 -86.8296
rradius 47.3445
rwrist 11.3503
rhand -26.646 -50.8611
rfingers 7.12502
rthumb -0.0781983 -80.8408
lclavicle -2.5109e-014 -6.55989e-015
lhumerus -42.8848 -11.8107 80.5191
lradius 65.1794
lwrist -0.42639
lhand -32.4625 -43.3864
lfingers 7.12502
lthumb -5.69531 -13.4829
rfemur -34.0261 4.52548 28.0196
rtibia 47.2395
rfoot -20.7538 -14.6062
rtoes -5.24756
lfemur -72.1549 19.3584 -10.6001
ltibia 128.673
lfoot -19.7866 -3.83574
ltoes -7.97745
804
root -3.44385 16.507 8.03605 14.1757 -7.79549 -2.39073
lowerback -1.2674 -0.64136 5.57918
upperback -4.61055 -0.773786 0.84877
thorax -4.12481 -0.580713 -2.22558
lowerneck -14.9849 -3.0137 -6.86857
upperneck 23.5779 -2.85282 1.44718
head 10.1245 -1.77743 1.2863
rclavicle 8.53532e-015 -1.98785e-014
rhumerus -41.1146 9.29569 -86.8172
rradius 46.8836
rwrist 12.3515
rhand -26.4391 -51.5282
rfingers 7.12502
rthumb 0.1216 -81.5079
lclavicle 8.53532e-015 -1.98785e-014
lhumerus -42.3643 -11.0666 80.0969
lradius 65.1789
lwrist -1.32933
lhand -32.7875 -44.326
lfingers 7.12502
lthumb -6.00907 -14.4313
rfemur -35.3019 5.64217 28.7741
rtibia 49.2404
rfoot -21.3459 -15.3886
rtoes -5.41813
lfemur -72.4297 20.219 -9.90256
ltibia 128.133
lfoot -19.9712 -4.49562
ltoes -7.96737
805
root -3.45983 16.3702 8.01709 14.6443 -7.81441 -3.87807
lowerback -1.40003 -0.592886 7.13536
upperback -4.55595 -0.69362 1.23353
thorax -4.01734 -0.586126 -2.69838
lowerneck -15.002 -2.80881 -6.8544
upperneck 23.1643 -2.6398 1.743
head 9.971 -1.63674 1.41606
rclavicle 2.03133e-014 -7.15625e-015
rhumerus -40.3791 9.6088 -86.8004
rradius 46.2625
rwrist 13.4208
rhand -26.0815 -51.5747
rfingers 7.12502
rthumb 0.467067 -81.554
lclavicle 2.03133e-014 -7.15625e-015
lhumerus -41.957 -10.1552 79.5311
lradius 65.3697
lwrist -2.31236
lhand -33.1159 -45.0916
lfingers 7.12502
lthumb -6.32615 -15.2061
rfemur -36.5999 6.54918 30.4318
rtibia 51.0862
rfoot -21.8014 -15.9782
rtoes -5.4924
lfemur -73.1955 21.0469 -8.23114
ltibia 127.796
lfoot -20.2754 -4.93875
ltoes -9.10968
806
root -3.47366 16.2384 7.98386 14.7154 -8.0834 -4.72522
lowerback -1.0729 -0.532335 7.94619
upperback -4.47992 -0.569706 1.44911
thorax -4.12695 -0.551221 -2.92578
lowerneck -14.9755 -2.60817 -6.80124
upperneck 22.8819 -2.41468 1.91291
head 9.85405 -1.50412 1.49612
rclavicle 1.44119e-014 7.7526e-015
rhumerus -39.7801 9.96141 -86.7834
rradius 45.6029
rwrist 14.0831
rhand -25.993 -50.9584
rfingers 7.12502
rthumb 0.55252 -80.9374
lclavicle 1.44119e-014 7.7526e-015
lhumerus -41.7532 -9.32967 79.0754
lradius 65.7468
lwrist -3.18518
lhand -33.2023 -45.1929
lfingers 7.12502
lthumb -6.40952 -15.3099
rfemur -37.6374 7.43525 31.382
rtibia 52.8462
rfoot -22.3082 -16.3304
rtoes -5.02865
lfemur -73.5416 21.4913 -7.29912
ltibia 127.364
lfoot -20.336 -4.91459
ltoes -9.65474
